<svg width="20" height="20" viewBox="0 0 20 20" fill="none" xmlns="http://www.w3.org/2000/svg">
<path d="M9.66667 5.441V8.771M18.2567 14.17C18.9867 15.39 18.4067 16.97 17.0567 17.42C12.2754 19.01 7.10795 19.01 2.32666 17.42C0.886665 16.94 0.336665 15.48 1.12667 14.17L2.39667 12.05C2.74667 11.47 3.02667 10.44 3.02667 9.77V7.67C3.02535 6.79456 3.19665 5.92744 3.53075 5.11826C3.86486 4.30907 4.35523 3.5737 4.97379 2.9542C5.59236 2.33471 6.327 1.84324 7.13568 1.50792C7.94436 1.1726 8.81122 0.999999 9.68667 1C13.3467 1 16.3467 4 16.3467 7.66V9.76C16.3467 9.94 16.3667 10.14 16.3967 10.35" stroke="#272727" stroke-opacity="0.5" stroke-width="1.5" stroke-miterlimit="10" stroke-linecap="round"/>
</svg>
