<svg width="16" height="22" viewBox="0 0 16 22" fill="none" xmlns="http://www.w3.org/2000/svg">
<path d="M11.68 2.96C12.16 3.67 12.44 4.52 12.44 5.44C12.43 7.84 10.54 9.79 8.15999 9.87C8.05999 9.86 7.93999 9.86 7.82999 9.87C5.61999 9.8 3.82999 8.11 3.58999 5.95C3.29999 3.38 5.40999 1 7.98999 1M2.98999 13.56C0.569988 15.18 0.569988 17.82 2.98999 19.43C5.73999 21.27 10.25 21.27 13 19.43C15.42 17.81 15.42 15.17 13 13.56C10.27 11.73 5.75999 11.73 2.98999 13.56Z" stroke="#272727" stroke-opacity="0.5" stroke-width="1.5" stroke-linecap="round" stroke-linejoin="round"/>
</svg>
